<?xml version="1.0" encoding="UTF-8" standalone="no"?><!-- Generator: Gravit.io --><svg xmlns="http://www.w3.org/2000/svg" xmlns:xlink="http://www.w3.org/1999/xlink" style="isolation:isolate" viewBox="0 0 2000 1000" width="2000pt" height="1000pt"><defs><clipPath id="_clipPath_lIXxkg3z6ZrKwF5bb3svKvvLg489utqd"><rect width="2000" height="1000"/></clipPath></defs><g clip-path="url(#_clipPath_lIXxkg3z6ZrKwF5bb3svKvvLg489utqd)"><rect width="2000" height="1000" style="fill:rgb(255,255,251)"/><g><path d=" M 0 -15 L 1999 -15 L 1999 1000 L 0 1000 L 0 -15 Z  M 120.948 76.117 L 1878.052 76.117 L 1878.052 908.883 L 120.948 908.883 L 120.948 76.117 Z " fill-rule="evenodd" fill="rgb(19,168,217)"/><g><path d=" M 909.25 381.958 L 909.25 381.958 L 909.25 381.958 Q 904.597 383.154 889.013 391.172 L 889.013 391.172 L 889.013 391.172 Q 873.429 399.191 854.972 409.391 L 854.972 409.391 L 854.972 409.391 Q 836.515 419.591 819.45 429.496 L 819.45 429.496 L 819.45 429.496 Q 802.385 439.401 794.84 443.096 L 794.84 443.096 L 794.84 443.096 Q 768.503 454.755 743.048 467.066 L 743.048 467.066 L 743.048 467.066 Q 717.593 479.377 690.376 490.384 L 690.376 490.384 L 690.376 490.384 Q 685.616 493.489 678.636 495.282 L 678.636 495.282 L 678.636 495.282 Q 671.656 497.075 664.324 496.951 L 664.324 496.951 L 664.324 496.951 Q 656.076 496.811 655.777 493.938 L 655.777 493.938 L 655.777 493.938 Q 655.479 491.066 653.824 487.852 L 653.824 487.852 L 653.824 487.852 Q 647.764 481.377 647.132 476.269 L 647.132 476.269 L 647.132 476.269 Q 646.5 471.161 646.678 467.978 L 646.678 467.978 L 646.678 467.978 Q 647.068 460.976 647.989 452.708 L 647.989 452.708 L 647.989 452.708 Q 648.909 444.441 647.396 438.68 L 647.396 438.68 L 647.396 438.68 Q 646.586 436.755 644.437 434.17 L 644.437 434.17 L 644.437 434.17 Q 642.288 431.585 642.359 430.312 L 642.359 430.312 L 642.359 430.312 Q 642.644 425.219 645.059 423.03 L 645.059 423.03 L 645.059 423.03 Q 647.475 420.841 649.521 417.053 L 649.521 417.053 L 649.521 417.053 Q 658.053 412.1 667.449 408.118 L 667.449 408.118 L 667.449 408.118 Q 676.845 404.136 686.258 399.836 L 686.258 399.836 L 686.258 399.836 Q 692.886 396.125 698.176 391.755 L 698.176 391.755 L 698.176 391.755 Q 703.465 387.384 711.01 383.689 L 711.01 383.689 L 711.01 383.689 Q 732.657 373.862 752.49 363.686 L 752.49 363.686 L 752.49 363.686 Q 772.322 353.509 792.172 343.014 L 792.172 343.014 L 792.172 343.014 Q 802.537 338.093 812.039 332.201 L 812.039 332.201 L 812.039 332.201 Q 821.541 326.309 830.99 321.372 L 830.99 321.372 L 830.99 321.372 Q 841.356 316.451 852.602 312.182 L 852.602 312.182 L 852.602 312.182 Q 863.848 307.912 874.214 302.991 L 874.214 302.991 L 874.214 302.991 Q 883.592 299.327 897.271 292.55 L 897.271 292.55 L 897.271 292.55 Q 910.951 285.774 925.125 278.368 L 925.125 278.368 L 925.125 278.368 Q 939.298 270.963 952.114 263.216 L 952.114 263.216 L 952.114 263.216 Q 964.931 255.469 971.666 249.849 L 971.666 249.849 L 971.666 249.849 Q 978.081 249.958 980.973 247.458 L 980.973 247.458 L 980.973 247.458 Q 983.864 244.958 987.708 241.838 L 987.708 241.838 L 987.708 241.838 Q 992.361 240.643 996.592 238.803 L 996.592 238.803 L 996.592 238.803 Q 1000.823 236.963 1006.321 237.057 L 1006.321 237.057 L 1006.321 237.057 Q 1009.987 237.119 1012.701 237.802 L 1012.701 237.802 L 1012.701 237.802 Q 1015.415 238.485 1018.129 239.169 L 1018.129 239.169 L 1018.129 239.169 Q 1021.724 240.504 1024.913 240.877 L 1024.913 240.877 L 1024.913 240.877 Q 1028.103 241.249 1031.698 242.585 L 1031.698 242.585 L 1031.698 242.585 Q 1043.434 245.97 1052.261 252.173 L 1052.261 252.173 L 1052.261 252.173 Q 1061.088 258.376 1072.825 261.761 L 1072.825 261.761 L 1072.825 261.761 Q 1076.455 262.46 1079.663 262.515 L 1079.663 262.515 L 1079.663 262.515 Q 1082.87 262.569 1086.465 263.904 L 1086.465 263.904 L 1086.465 263.904 Q 1091.857 265.908 1097.143 269.82 L 1097.143 269.82 L 1097.143 269.82 Q 1102.428 273.733 1108.666 277.025 L 1108.666 277.025 L 1108.666 277.025 Q 1116.736 280.348 1124.807 283.671 L 1124.807 283.671 L 1124.807 283.671 Q 1132.877 286.994 1140.947 290.317 L 1140.947 290.317 L 1140.947 290.317 Q 1161.528 299.587 1180.628 310.743 L 1180.628 310.743 L 1180.628 310.743 Q 1199.728 321.899 1218.44 331.774 L 1218.44 331.774 L 1218.44 331.774 Q 1236.272 340.998 1253.717 348.94 L 1253.717 348.94 L 1253.717 348.94 Q 1271.161 356.882 1288.993 366.106 L 1288.993 366.106 L 1288.993 366.106 Q 1297.909 370.717 1309.045 376.641 L 1309.045 376.641 L 1309.045 376.641 Q 1320.18 382.565 1330.84 388.799 L 1330.84 388.799 L 1330.84 388.799 Q 1341.5 395.033 1350.768 401.562 L 1350.768 401.562 L 1350.768 401.562 Q 1360.035 408.091 1364.262 414.535 L 1364.262 414.535 L 1364.262 414.535 Q 1365.491 425.388 1358.44 428.454 L 1358.44 428.454 L 1358.44 428.454 Q 1351.388 431.52 1351.068 437.249 L 1351.068 437.249 L 1351.068 437.249 Q 1347.822 446.114 1342.145 449.204 L 1342.145 449.204 L 1342.145 449.204 Q 1336.469 452.293 1331.709 455.398 L 1331.709 455.398 L 1331.709 455.398 Q 1331.247 463.674 1326.344 469.325 L 1326.344 469.325 L 1326.344 469.325 Q 1321.442 474.976 1311.958 480.55 L 1311.958 480.55 L 1311.958 480.55 Q 1302.019 477.832 1294.002 473.555 L 1294.002 473.555 L 1294.002 473.555 Q 1285.984 469.277 1276.998 465.938 L 1276.998 465.938 L 1276.998 465.938 Q 1274.533 460.799 1268.242 458.462 L 1268.242 458.462 L 1268.242 458.462 Q 1261.951 456.125 1257.617 451.591 L 1257.617 451.591 L 1257.617 451.591 Q 1242.428 444.325 1227.698 437.065 L 1227.698 437.065 L 1227.698 437.065 Q 1212.967 429.806 1199.611 422.571 L 1199.611 422.571 L 1199.611 422.571 Q 1194.29 419.294 1191.313 415.102 L 1191.313 415.102 L 1191.313 415.102 Q 1188.337 410.91 1182.064 408.255 L 1182.064 408.255 L 1182.064 408.255 Q 1179.386 406.935 1176.213 406.244 L 1176.213 406.244 L 1176.213 406.244 Q 1173.041 405.553 1170.363 404.233 L 1170.363 404.233 L 1170.363 404.233 Q 1153.377 396.299 1137.414 386.47 L 1137.414 386.47 L 1137.414 386.47 Q 1121.45 376.641 1103.512 369.328 L 1103.512 369.328 L 1103.512 369.328 Q 1097.275 366.036 1090.508 364.009 L 1090.508 364.009 L 1090.508 364.009 Q 1083.741 361.983 1077.468 359.328 L 1077.468 359.328 L 1077.468 359.328 Q 1072.111 356.688 1062.297 351.743 L 1062.297 351.743 L 1062.297 351.743 Q 1052.482 346.797 1042.209 341.844 L 1042.209 341.844 L 1042.209 341.844 Q 1031.937 336.891 1022.509 333.226 L 1022.509 333.226 L 1022.509 333.226 Q 1013.082 329.562 1006.667 329.453 L 1006.667 329.453 L 1006.667 329.453 Q 1002.049 330.011 987.875 337.417 L 987.875 337.417 L 987.875 337.417 Q 973.702 344.822 957.607 353.788 L 957.607 353.788 L 957.607 353.788 Q 941.512 362.754 927.285 371.114 L 927.285 371.114 L 927.285 371.114 Q 913.058 379.474 909.25 381.958 Z " fill="rgb(12,131,132)"/></g><g><path d=" M 679.694 798.949 L 679.694 798.949 L 679.694 798.949 Q 682.355 796.548 681.755 794.118 L 681.755 794.118 L 681.755 794.118 Q 681.155 791.688 681.221 788.658 L 681.221 788.658 L 681.221 788.658 Q 683.986 781.409 681.378 781.386 L 681.378 781.386 L 681.378 781.386 Q 678.769 781.364 678.795 780.152 L 678.795 780.152 L 688.056 774.17 L 688.056 774.17 Q 688.135 770.534 691.461 767.532 L 691.461 767.532 L 691.461 767.532 Q 694.787 764.53 693.575 760.277 L 693.575 760.277 L 693.575 760.277 Q 697.553 757.281 700.879 754.279 L 700.879 754.279 L 700.879 754.279 Q 704.206 751.277 710.793 748.303 L 710.793 748.303 L 727.749 748.448 L 727.749 748.448 Q 742.097 748.571 758.42 747.803 L 758.42 747.803 L 758.42 747.803 Q 774.744 747.034 790.396 747.168 L 790.396 747.168 L 790.396 747.168 Q 793.005 747.19 796.911 747.527 L 796.911 747.527 L 796.911 747.527 Q 800.818 747.864 804.731 747.897 L 804.731 747.897 L 804.731 747.897 Q 807.339 747.92 811.259 747.65 L 811.259 747.65 L 811.259 747.65 Q 815.178 747.381 820.396 747.426 L 820.396 747.426 L 820.396 747.426 Q 839.96 747.594 858.854 748.665 L 858.854 748.665 L 858.854 748.665 Q 877.747 749.737 898.616 749.916 L 898.616 749.916 L 898.616 749.916 Q 903.833 749.961 909.051 750.006 L 909.051 750.006 L 909.051 750.006 Q 914.268 750.051 920.803 749.501 L 920.803 749.501 L 920.803 749.501 Q 922.33 739.21 923.211 728.61 L 923.211 728.61 L 923.211 728.61 Q 924.092 718.011 924.328 707.103 L 924.328 707.103 L 924.328 707.103 Q 924.393 704.073 925.769 700.751 L 925.769 700.751 L 925.769 700.751 Q 927.146 697.429 927.211 694.399 L 927.211 694.399 L 927.211 694.399 Q 928.685 686.532 929.495 679.266 L 929.495 679.266 L 929.495 679.266 Q 930.304 671.999 930.474 664.121 L 930.474 664.121 L 930.474 664.121 Q 930.84 647.153 930.555 630.179 L 930.555 630.179 L 930.555 630.179 Q 930.269 613.205 929.344 595.62 L 929.344 595.62 L 929.344 595.62 Q 928.236 586.519 927.115 578.023 L 927.115 578.023 L 927.115 578.023 Q 925.994 569.528 926.19 560.438 L 926.19 560.438 L 926.19 560.438 Q 926.635 539.834 928.378 519.544 L 928.378 519.544 L 928.378 519.544 Q 930.121 499.254 930.566 478.65 L 930.566 478.65 L 930.566 478.65 Q 930.71 471.983 932.138 466.238 L 932.138 466.238 L 932.138 466.238 Q 933.567 460.492 933.711 453.826 L 933.711 453.826 L 933.711 453.826 Q 934.012 439.888 933.009 425.938 L 933.009 425.938 L 933.009 425.938 Q 932.005 411.989 932.306 398.051 L 932.306 398.051 L 932.306 398.051 Q 932.45 391.385 933.247 384.724 L 933.247 384.724 L 933.247 384.724 Q 934.043 378.064 934.187 371.398 L 934.187 371.398 L 934.187 371.398 Q 940.813 366.606 943.5 362.992 L 943.5 362.992 L 943.5 362.992 Q 946.187 359.378 959.231 359.49 L 959.231 359.49 L 959.231 359.49 Q 968.335 360.781 967.65 362.29 L 967.65 362.29 L 967.65 362.29 Q 966.965 363.8 969.548 365.034 L 969.548 365.034 L 969.548 365.034 Q 981.273 365.741 987.176 364.276 L 987.176 364.276 L 987.176 364.276 Q 993.078 362.812 1000.93 361.667 L 1000.93 361.667 L 1000.93 361.667 Q 1004.83 362.307 1009.395 362.346 L 1009.395 362.346 L 1009.395 362.346 Q 1013.96 362.385 1017.873 362.419 L 1017.873 362.419 L 1017.873 362.419 Q 1020.482 362.441 1023.11 361.555 L 1023.11 361.555 L 1023.11 361.555 Q 1025.738 360.668 1034.869 360.746 L 1034.869 360.746 L 1034.869 360.746 Q 1042.708 360.208 1043.973 362.037 L 1043.973 362.037 L 1043.973 362.037 Q 1045.238 363.866 1051.76 363.922 L 1051.76 363.922 L 1051.76 363.922 Q 1058.32 362.16 1066.818 361.324 L 1066.818 361.324 L 1066.818 361.324 Q 1075.316 360.488 1083.142 360.555 L 1083.142 360.555 L 1083.142 360.555 Q 1090.916 363.046 1090.218 365.162 L 1090.218 365.162 L 1090.218 365.162 Q 1089.52 367.277 1092.076 369.723 L 1092.076 369.723 L 1092.076 369.723 Q 1093.354 370.947 1096.569 373.096 L 1096.569 373.096 L 1096.569 373.096 Q 1099.784 375.245 1102.367 376.479 L 1102.367 376.479 L 1102.367 376.479 Q 1099.575 384.941 1098.126 391.596 L 1098.126 391.596 L 1098.126 391.596 Q 1096.678 398.251 1096.508 406.129 L 1096.508 406.129 L 1096.508 406.129 Q 1096.168 421.885 1098.449 437.057 L 1098.449 437.057 L 1098.449 437.057 Q 1100.731 452.23 1100.39 467.986 L 1100.39 467.986 L 1100.39 467.986 Q 1100.286 472.834 1097.559 478.266 L 1097.559 478.266 L 1097.559 478.266 Q 1094.833 483.697 1094.702 489.758 L 1094.702 489.758 L 1094.702 489.758 Q 1097.206 494.628 1095.882 495.526 L 1095.882 495.526 L 1095.882 495.526 Q 1094.558 496.424 1094.532 497.636 L 1094.532 497.636 L 1094.532 497.636 Q 1094.453 501.272 1095.027 504.913 L 1095.027 504.913 L 1095.027 504.913 Q 1095.601 508.555 1095.522 512.191 L 1095.522 512.191 L 1095.522 512.191 Q 1095.365 519.463 1094.556 526.729 L 1094.556 526.729 L 1094.556 526.729 Q 1093.747 533.996 1093.589 541.268 L 1093.589 541.268 L 1093.589 541.268 Q 1093.524 544.298 1094.104 547.637 L 1094.104 547.637 L 1094.104 547.637 Q 1094.684 550.975 1094.619 554.005 L 1094.619 554.005 L 1094.619 554.005 Q 1095.805 559.471 1095.022 565.525 L 1095.022 565.525 L 1095.022 565.525 Q 1094.239 571.58 1094.109 577.64 L 1094.109 577.64 L 1094.109 577.64 Q 1093.48 606.728 1094.822 635.227 L 1094.822 635.227 L 1094.822 635.227 Q 1096.163 663.726 1095.535 692.814 L 1095.535 692.814 L 1095.535 692.814 Q 1095.234 706.753 1091.659 721.269 L 1091.659 721.269 L 1091.659 721.269 Q 1088.084 735.785 1087.77 750.329 L 1087.77 750.329 L 1087.77 750.329 Q 1087.731 752.147 1090.274 755.199 L 1090.274 755.199 L 1090.274 755.199 Q 1092.817 758.252 1095.4 759.486 L 1095.4 759.486 L 1095.4 759.486 Q 1101.921 759.542 1107.784 759.896 L 1107.784 759.896 L 1107.784 759.896 Q 1113.647 760.249 1120.169 760.305 L 1120.169 760.305 L 1120.169 760.305 Q 1134.516 760.428 1147.599 758.722 L 1147.599 758.722 L 1147.599 758.722 Q 1172.394 758.329 1195.24 757.616 L 1195.24 757.616 L 1195.24 757.616 Q 1218.085 756.904 1241.576 756.499 L 1241.576 756.499 L 1241.576 756.499 Q 1257.215 757.24 1260.482 756.965 L 1260.482 756.965 L 1260.482 756.965 Q 1263.75 756.69 1267.663 756.723 L 1267.663 756.723 L 1267.663 756.723 Q 1278.097 756.813 1283.262 759.282 L 1283.262 759.282 L 1283.092 767.16 L 1283.092 767.16 Q 1290.761 774.499 1289.444 775.094 L 1289.444 775.094 L 1289.444 775.094 Q 1288.126 775.689 1288.1 776.901 L 1288.1 776.901 L 1288.1 776.901 Q 1288.061 778.719 1295.189 780.902 L 1295.189 780.902 L 1295.189 780.902 Q 1302.317 783.084 1302.212 787.932 L 1302.212 787.932 L 1302.212 787.932 Q 1303.412 792.791 1307.272 795.249 L 1307.272 795.249 L 1307.272 795.249 Q 1311.133 797.707 1311.081 800.131 L 1311.081 800.131 L 1311.081 800.131 Q 1310.989 804.373 1306.958 809.793 L 1306.958 809.793 L 1306.958 809.793 Q 1295.154 812.722 1284.041 813.839 L 1284.041 813.839 L 1284.041 813.839 Q 1272.928 814.956 1258.541 816.651 L 1258.541 816.651 L 1258.541 816.651 Q 1250.689 817.796 1244.141 818.951 L 1244.141 818.951 L 1244.141 818.951 Q 1237.593 820.107 1229.754 820.646 L 1229.754 820.646 L 1229.754 820.646 Q 1220.611 821.174 1211.48 821.095 L 1211.48 821.095 L 1211.48 821.095 Q 1202.35 821.017 1193.207 821.545 L 1193.207 821.545 L 1193.207 821.545 Q 1173.603 823.194 1152.055 824.222 L 1152.055 824.222 L 1152.055 824.222 Q 1130.507 825.249 1110.942 825.081 L 1110.942 825.081 L 1110.942 825.081 Q 1092.682 824.924 1074.467 822.646 L 1074.467 822.646 L 1074.467 822.646 Q 1056.252 820.368 1041.905 820.245 L 1041.905 820.245 L 1041.905 820.245 Q 1021.035 820.065 1002.149 818.691 L 1002.149 818.691 L 1002.149 818.691 Q 983.262 817.316 962.393 817.137 L 962.393 817.137 L 962.393 817.137 Q 959.784 817.115 953.934 816.155 L 953.934 816.155 L 953.934 816.155 Q 948.085 815.196 940.259 815.129 L 940.259 815.129 L 813.739 814.042 L 813.739 814.042 Q 803.33 812.74 798.752 813.307 L 798.752 813.307 L 798.752 813.307 Q 794.174 813.874 790.261 813.84 L 790.261 813.84 L 790.261 813.84 Q 779.826 813.75 770.709 813.066 L 770.709 813.066 L 770.709 813.066 Q 761.592 812.381 751.157 812.292 L 751.157 812.292 L 751.157 812.292 Q 742.027 812.213 736.796 812.774 L 736.796 812.774 L 736.796 812.774 Q 726.375 812.079 717.29 809.879 L 717.29 809.879 L 717.29 809.879 Q 708.206 807.68 696.467 807.579 L 696.467 807.579 L 696.467 807.579 Q 691.289 805.716 688.739 802.967 L 688.739 802.967 L 688.739 802.967 Q 686.189 800.217 679.694 798.949 Z " fill="rgb(12,131,132)"/><path d=" M 1000.395 771.601 C 969.668 737.677 1042.655 674.847 1163.284 631.381 C 1283.912 587.916 1406.794 580.169 1437.521 614.092 C 1468.249 648.016 1395.261 710.846 1274.633 754.312 C 1154.005 797.778 1031.123 805.524 1000.395 771.601 Z  M 1019.382 762.065 C 994.634 734.742 1060.617 681.544 1166.639 643.342 C 1272.661 605.139 1378.83 596.306 1403.579 623.628 C 1428.327 650.951 1362.343 704.149 1256.321 742.351 C 1150.299 780.554 1044.13 789.387 1019.382 762.065 Z " fill-rule="evenodd" fill="rgb(12,131,132)"/></g><g><path d=" M 679.694 798.949 L 679.694 798.949 L 679.694 798.949 Q 682.355 796.548 681.755 794.118 L 681.755 794.118 L 681.755 794.118 Q 681.155 791.688 681.221 788.658 L 681.221 788.658 L 681.221 788.658 Q 683.986 781.409 681.378 781.386 L 681.378 781.386 L 681.378 781.386 Q 678.769 781.364 678.795 780.152 L 678.795 780.152 L 688.056 774.17 L 688.056 774.17 Q 688.135 770.534 691.461 767.532 L 691.461 767.532 L 691.461 767.532 Q 694.787 764.53 693.575 760.277 L 693.575 760.277 L 693.575 760.277 Q 697.553 757.281 700.879 754.279 L 700.879 754.279 L 700.879 754.279 Q 704.206 751.277 710.793 748.303 L 710.793 748.303 L 727.749 748.448 L 727.749 748.448 Q 742.097 748.571 758.42 747.803 L 758.42 747.803 L 758.42 747.803 Q 774.744 747.034 790.396 747.168 L 790.396 747.168 L 790.396 747.168 Q 793.005 747.19 796.911 747.527 L 796.911 747.527 L 796.911 747.527 Q 800.818 747.864 804.731 747.897 L 804.731 747.897 L 804.731 747.897 Q 807.339 747.92 811.259 747.65 L 811.259 747.65 L 811.259 747.65 Q 815.178 747.381 820.396 747.426 L 820.396 747.426 L 820.396 747.426 Q 839.96 747.594 858.854 748.665 L 858.854 748.665 L 858.854 748.665 Q 877.747 749.737 898.616 749.916 L 898.616 749.916 L 898.616 749.916 Q 903.833 749.961 909.051 750.006 L 909.051 750.006 L 909.051 750.006 Q 914.268 750.051 920.803 749.501 L 920.803 749.501 L 920.803 749.501 Q 922.33 739.21 923.211 728.61 L 923.211 728.61 L 923.211 728.61 Q 924.092 718.011 924.328 707.103 L 924.328 707.103 L 924.328 707.103 Q 924.393 704.073 925.769 700.751 L 925.769 700.751 L 925.769 700.751 Q 927.146 697.429 927.211 694.399 L 927.211 694.399 L 927.211 694.399 Q 928.685 686.532 929.495 679.266 L 929.495 679.266 L 929.495 679.266 Q 930.304 671.999 930.474 664.121 L 930.474 664.121 L 930.474 664.121 Q 930.84 647.153 930.555 630.179 L 930.555 630.179 L 930.555 630.179 Q 930.269 613.205 929.344 595.62 L 929.344 595.62 L 929.344 595.62 Q 928.236 586.519 927.115 578.023 L 927.115 578.023 L 927.115 578.023 Q 925.994 569.528 926.19 560.438 L 926.19 560.438 L 926.19 560.438 Q 926.635 539.834 928.378 519.544 L 928.378 519.544 L 928.378 519.544 Q 930.121 499.254 930.566 478.65 L 930.566 478.65 L 930.566 478.65 Q 930.71 471.983 932.138 466.238 L 932.138 466.238 L 932.138 466.238 Q 933.567 460.492 933.711 453.826 L 933.711 453.826 L 933.711 453.826 Q 934.012 439.888 933.009 425.938 L 933.009 425.938 L 933.009 425.938 Q 932.005 411.989 932.306 398.051 L 932.306 398.051 L 932.306 398.051 Q 932.45 391.385 933.247 384.724 L 933.247 384.724 L 933.247 384.724 Q 934.043 378.064 934.187 371.398 L 934.187 371.398 L 934.187 371.398 Q 940.813 366.606 943.5 362.992 L 943.5 362.992 L 943.5 362.992 Q 946.187 359.378 959.231 359.49 L 959.231 359.49 L 959.231 359.49 Q 968.335 360.781 967.65 362.29 L 967.65 362.29 L 967.65 362.29 Q 966.965 363.8 969.548 365.034 L 969.548 365.034 L 969.548 365.034 Q 981.273 365.741 987.176 364.276 L 987.176 364.276 L 987.176 364.276 Q 993.078 362.812 1000.93 361.667 L 1000.93 361.667 L 1000.93 361.667 Q 1004.83 362.307 1009.395 362.346 L 1009.395 362.346 L 1009.395 362.346 Q 1013.96 362.385 1017.873 362.419 L 1017.873 362.419 L 1017.873 362.419 Q 1020.482 362.441 1023.11 361.555 L 1023.11 361.555 L 1023.11 361.555 Q 1025.738 360.668 1034.869 360.746 L 1034.869 360.746 L 1034.869 360.746 Q 1042.708 360.208 1043.973 362.037 L 1043.973 362.037 L 1043.973 362.037 Q 1045.238 363.866 1051.76 363.922 L 1051.76 363.922 L 1051.76 363.922 Q 1058.32 362.16 1066.818 361.324 L 1066.818 361.324 L 1066.818 361.324 Q 1075.316 360.488 1083.142 360.555 L 1083.142 360.555 L 1083.142 360.555 Q 1090.916 363.046 1090.218 365.162 L 1090.218 365.162 L 1090.218 365.162 Q 1089.52 367.277 1092.076 369.723 L 1092.076 369.723 L 1092.076 369.723 Q 1093.354 370.947 1096.569 373.096 L 1096.569 373.096 L 1096.569 373.096 Q 1099.784 375.245 1102.367 376.479 L 1102.367 376.479 L 1102.367 376.479 Q 1099.575 384.941 1098.126 391.596 L 1098.126 391.596 L 1098.126 391.596 Q 1096.678 398.251 1096.508 406.129 L 1096.508 406.129 L 1096.508 406.129 Q 1096.168 421.885 1098.449 437.057 L 1098.449 437.057 L 1098.449 437.057 Q 1100.731 452.23 1100.39 467.986 L 1100.39 467.986 L 1100.39 467.986 Q 1100.286 472.834 1097.559 478.266 L 1097.559 478.266 L 1097.559 478.266 Q 1094.833 483.697 1094.702 489.758 L 1094.702 489.758 L 1094.702 489.758 Q 1097.206 494.628 1095.882 495.526 L 1095.882 495.526 L 1095.882 495.526 Q 1094.558 496.424 1094.532 497.636 L 1094.532 497.636 L 1094.532 497.636 Q 1094.453 501.272 1095.027 504.913 L 1095.027 504.913 L 1095.027 504.913 Q 1095.601 508.555 1095.522 512.191 L 1095.522 512.191 L 1095.522 512.191 Q 1095.365 519.463 1094.556 526.729 L 1094.556 526.729 L 1094.556 526.729 Q 1093.747 533.996 1093.589 541.268 L 1093.589 541.268 L 1093.589 541.268 Q 1093.524 544.298 1094.104 547.637 L 1094.104 547.637 L 1094.104 547.637 Q 1094.684 550.975 1094.619 554.005 L 1094.619 554.005 L 1094.619 554.005 Q 1095.805 559.471 1095.022 565.525 L 1095.022 565.525 L 1095.022 565.525 Q 1094.239 571.58 1094.109 577.64 L 1094.109 577.64 L 1094.109 577.64 Q 1093.48 606.728 1094.822 635.227 L 1094.822 635.227 L 1094.822 635.227 Q 1096.163 663.726 1095.535 692.814 L 1095.535 692.814 L 1095.535 692.814 Q 1095.234 706.753 1091.659 721.269 L 1091.659 721.269 L 1091.659 721.269 Q 1088.084 735.785 1087.77 750.329 L 1087.77 750.329 L 1087.77 750.329 Q 1087.731 752.147 1090.274 755.199 L 1090.274 755.199 L 1090.274 755.199 Q 1092.817 758.252 1095.4 759.486 L 1095.4 759.486 L 1095.4 759.486 Q 1101.921 759.542 1107.784 759.896 L 1107.784 759.896 L 1107.784 759.896 Q 1113.647 760.249 1120.169 760.305 L 1120.169 760.305 L 1120.169 760.305 Q 1134.516 760.428 1147.599 758.722 L 1147.599 758.722 L 1147.599 758.722 Q 1172.394 758.329 1195.24 757.616 L 1195.24 757.616 L 1195.24 757.616 Q 1218.085 756.904 1241.576 756.499 L 1241.576 756.499 L 1241.576 756.499 Q 1257.215 757.24 1260.482 756.965 L 1260.482 756.965 L 1260.482 756.965 Q 1263.75 756.69 1267.663 756.723 L 1267.663 756.723 L 1267.663 756.723 Q 1278.097 756.813 1283.262 759.282 L 1283.262 759.282 L 1283.092 767.16 L 1283.092 767.16 Q 1290.761 774.499 1289.444 775.094 L 1289.444 775.094 L 1289.444 775.094 Q 1288.126 775.689 1288.1 776.901 L 1288.1 776.901 L 1288.1 776.901 Q 1288.061 778.719 1295.189 780.902 L 1295.189 780.902 L 1295.189 780.902 Q 1302.317 783.084 1302.212 787.932 L 1302.212 787.932 L 1302.212 787.932 Q 1303.412 792.791 1307.272 795.249 L 1307.272 795.249 L 1307.272 795.249 Q 1311.133 797.707 1311.081 800.131 L 1311.081 800.131 L 1311.081 800.131 Q 1310.989 804.373 1306.958 809.793 L 1306.958 809.793 L 1306.958 809.793 Q 1295.154 812.722 1284.041 813.839 L 1284.041 813.839 L 1284.041 813.839 Q 1272.928 814.956 1258.541 816.651 L 1258.541 816.651 L 1258.541 816.651 Q 1250.689 817.796 1244.141 818.951 L 1244.141 818.951 L 1244.141 818.951 Q 1237.593 820.107 1229.754 820.646 L 1229.754 820.646 L 1229.754 820.646 Q 1220.611 821.174 1211.48 821.095 L 1211.48 821.095 L 1211.48 821.095 Q 1202.35 821.017 1193.207 821.545 L 1193.207 821.545 L 1193.207 821.545 Q 1173.603 823.194 1152.055 824.222 L 1152.055 824.222 L 1152.055 824.222 Q 1130.507 825.249 1110.942 825.081 L 1110.942 825.081 L 1110.942 825.081 Q 1092.682 824.924 1074.467 822.646 L 1074.467 822.646 L 1074.467 822.646 Q 1056.252 820.368 1041.905 820.245 L 1041.905 820.245 L 1041.905 820.245 Q 1021.035 820.065 1002.149 818.691 L 1002.149 818.691 L 1002.149 818.691 Q 983.262 817.316 962.393 817.137 L 962.393 817.137 L 962.393 817.137 Q 959.784 817.115 953.934 816.155 L 953.934 816.155 L 953.934 816.155 Q 948.085 815.196 940.259 815.129 L 940.259 815.129 L 813.739 814.042 L 813.739 814.042 Q 803.33 812.74 798.752 813.307 L 798.752 813.307 L 798.752 813.307 Q 794.174 813.874 790.261 813.84 L 790.261 813.84 L 790.261 813.84 Q 779.826 813.75 770.709 813.066 L 770.709 813.066 L 770.709 813.066 Q 761.592 812.381 751.157 812.292 L 751.157 812.292 L 751.157 812.292 Q 742.027 812.213 736.796 812.774 L 736.796 812.774 L 736.796 812.774 Q 726.375 812.079 717.29 809.879 L 717.29 809.879 L 717.29 809.879 Q 708.206 807.68 696.467 807.579 L 696.467 807.579 L 696.467 807.579 Q 691.289 805.716 688.739 802.967 L 688.739 802.967 L 688.739 802.967 Q 686.189 800.217 679.694 798.949 Z " fill="rgb(12,131,132)"/><path d=" M 1000.395 771.601 C 969.668 737.677 1042.655 674.847 1163.284 631.381 C 1283.912 587.916 1406.794 580.169 1437.521 614.092 C 1468.249 648.016 1395.261 710.846 1274.633 754.312 C 1154.005 797.778 1031.123 805.524 1000.395 771.601 Z  M 1019.382 762.065 C 994.634 734.742 1060.617 681.544 1166.639 643.342 C 1272.661 605.139 1378.83 596.306 1403.579 623.628 C 1428.327 650.951 1362.343 704.149 1256.321 742.351 C 1150.299 780.554 1044.13 789.387 1019.382 762.065 Z " fill-rule="evenodd" fill="rgb(12,131,132)"/></g><path d=" M 946.753 651.011 C 916.025 617.087 989.013 554.257 1109.641 510.791 C 1230.269 467.325 1353.151 459.579 1383.879 493.502 C 1414.607 527.426 1341.619 590.256 1220.991 633.722 C 1100.362 677.187 977.48 684.934 946.753 651.011 Z  M 965.74 641.475 C 940.991 614.152 1006.975 560.954 1112.997 522.752 C 1219.019 484.549 1325.188 475.716 1349.936 503.038 C 1374.685 530.361 1308.701 583.559 1202.679 621.761 C 1096.657 659.964 990.488 668.797 965.74 641.475 Z " fill-rule="evenodd" fill="rgb(12,131,132)"/></g></g></svg>